<svg width="1400" height="1000" viewBox="0 0 1400 1000" fill="none" xmlns="http://www.w3.org/2000/svg">
  <rect width="1400" height="1000" fill="#f7f8fa"/>
  <g opacity=".65">
    <path d="M85 635c160-88 289-77 438 34 155 115 298 124 463 28 122-70 224-78 329-23" stroke="#d9e6f6" stroke-width="3"/>
    <path d="M79 585c172-96 316-87 476 31 146 108 272 118 428 28 134-78 246-87 360-26" stroke="#c9dcf3" stroke-width="3"/>
    <path d="M73 535c184-103 343-96 514 29 138 101 247 112 394 27 147-86 270-96 392-29" stroke="#b6d3f0" stroke-width="3"/>
    <path d="M67 485c196-110 371-105 552 27 129 94 223 105 360 26 159-93 293-105 424-33" stroke="#99c5ec" stroke-width="3"/>
  </g>
  <g opacity=".75">
    <rect x="964" y="158" width="246" height="138" rx="28" fill="#fff" stroke="#e5e7eb" stroke-width="3"/>
    <circle cx="1015" cy="204" r="7" fill="#0b72e7"/>
    <circle cx="1046" cy="204" r="7" fill="#6bd7e8"/>
    <circle cx="1077" cy="204" r="7" fill="#cbd5e1"/>
    <path d="M1012 247h150" stroke="#dbe2ec" stroke-width="7" stroke-linecap="round"/>
    <path d="M1012 271h108" stroke="#e6ebf2" stroke-width="7" stroke-linecap="round"/>
  </g>
  <g opacity=".85">
    <rect x="895" y="727" width="305" height="164" rx="30" fill="#fff" stroke="#e5e7eb" stroke-width="3"/>
    <path d="M940 776h116" stroke="#dbe2ec" stroke-width="8" stroke-linecap="round"/>
    <path d="M940 812h176" stroke="#e6ebf2" stroke-width="8" stroke-linecap="round"/>
    <path d="M940 846h132" stroke="#e6ebf2" stroke-width="8" stroke-linecap="round"/>
    <path d="M1128 834a58 58 0 1 0-1-70" stroke="#0b72e7" stroke-width="20" stroke-linecap="round"/>
    <path d="M1127 764a58 58 0 0 1 54 37" stroke="#6bd7e8" stroke-width="20" stroke-linecap="round"/>
  </g>
  <g opacity=".7">
    <path d="M188 802h156M188 841h112M188 880h186" stroke="#e4e9f2" stroke-width="8" stroke-linecap="round"/>
    <circle cx="151" cy="802" r="10" fill="#0b72e7"/>
    <circle cx="151" cy="841" r="10" fill="#6bd7e8"/>
    <circle cx="151" cy="880" r="10" fill="#cbd5e1"/>
  </g>
  <g filter="url(#softShadow)">
    <path d="M527 748 731 260h156l204 488H939l-34-90H707l-34 90H527Zm219-213h119l-59-158-60 158Z" fill="#0b72e7"/>
    <path d="M911 260h128l215 288V260h139v488h-126L1050 458v290H911V260Z" fill="#111418"/>
  </g>
  <g>
    <path d="M681 611h338l254 90" stroke="#fff" stroke-width="9" stroke-linecap="round" stroke-linejoin="round"/>
    <path d="M681 611h338l254 90" stroke="#0b72e7" stroke-width="4" stroke-linecap="round" stroke-linejoin="round"/>
    <path d="M842 340 998 491 1273 701" stroke="#fff" stroke-width="9" stroke-linecap="round" stroke-linejoin="round"/>
    <path d="M842 340 998 491 1273 701" stroke="#6bd7e8" stroke-width="4" stroke-linecap="round" stroke-linejoin="round"/>
    <circle cx="681" cy="611" r="23" fill="#fff"/>
    <circle cx="681" cy="611" r="13" fill="#0b72e7"/>
    <circle cx="842" cy="340" r="23" fill="#fff"/>
    <circle cx="842" cy="340" r="13" fill="#0b72e7"/>
    <circle cx="998" cy="491" r="23" fill="#fff"/>
    <circle cx="998" cy="491" r="13" fill="#6bd7e8"/>
    <circle cx="1273" cy="701" r="23" fill="#fff"/>
    <circle cx="1273" cy="701" r="13" fill="#0b72e7"/>
  </g>
  <g opacity=".5">
    <circle cx="268" cy="181" r="6" fill="#0b72e7"/>
    <circle cx="310" cy="181" r="6" fill="#cbd5e1"/>
    <circle cx="352" cy="181" r="6" fill="#cbd5e1"/>
    <circle cx="394" cy="181" r="6" fill="#6bd7e8"/>
    <circle cx="436" cy="181" r="6" fill="#cbd5e1"/>
    <circle cx="478" cy="181" r="6" fill="#cbd5e1"/>
    <circle cx="520" cy="181" r="6" fill="#0b72e7"/>
    <circle cx="268" cy="223" r="6" fill="#cbd5e1"/>
    <circle cx="310" cy="223" r="6" fill="#cbd5e1"/>
    <circle cx="352" cy="223" r="6" fill="#0b72e7"/>
    <circle cx="394" cy="223" r="6" fill="#cbd5e1"/>
    <circle cx="436" cy="223" r="6" fill="#6bd7e8"/>
    <circle cx="478" cy="223" r="6" fill="#cbd5e1"/>
    <circle cx="520" cy="223" r="6" fill="#cbd5e1"/>
  </g>
  <defs>
    <filter id="softShadow" x="475" y="230" width="970" height="570" filterUnits="userSpaceOnUse" color-interpolation-filters="sRGB">
      <feDropShadow dx="0" dy="22" stdDeviation="22" flood-color="#0f172a" flood-opacity=".12"/>
    </filter>
  </defs>
</svg>
